<svg xmlns="http://www.w3.org/2000/svg" width="98.8" height="120.189" viewBox="0 0 98.8 120.189">
  <g id="Group_2" data-name="Group 2" transform="translate(-545.421 -596.523)">
    <g id="Group_1" data-name="Group 1">
      <path id="Path_1" data-name="Path 1" d="M558.959,649.6c6.843,4.559,16.126,5.881,24.033,5.881q16.564,0,25.154-6.979a22.465,22.465,0,0,0,8.589-18.328,23.067,23.067,0,0,0-12.5-20.889,37.358,37.358,0,0,0-7.975-2.961,56.741,56.741,0,0,0-13.267-1.457q-16.565,0-25.154,6.978a22.471,22.471,0,0,0-8.589,18.329,24.663,24.663,0,0,0,2.531,11.58A21.21,21.21,0,0,0,558.959,649.6Zm16.135-36.758q2.835-4.908,7.9-4.908t7.9,4.908q2.836,4.911,2.838,17.332T590.891,647.5q-2.84,4.909-7.9,4.907t-7.9-4.907q-2.841-4.908-2.838-17.332T575.094,612.84Z"/>
      <path id="Path_2" data-name="Path 2" d="M616.352,669.053q-6.52-6.672-18.022-6.672H569.189q-6.9,0-9.587-1.38a4.475,4.475,0,0,1-2.661-3.6,4.941,4.941,0,0,1,1.311-3.358c-4.921-.417-10.216,2.385-11.825,7.132A16,16,0,0,0,551.55,679.1q6.132,4.757,17.639,4.755H598.33q18.4,0,18.4,9.97,0,7.821-8.666,13.113c-6.423,3.923-14.008,5.75-21.468,6.186a52.554,52.554,0,0,1-22.828-3.694,12.134,12.134,0,0,0,4.856-9.679,11.762,11.762,0,0,0-5.105-9.519,11.415,11.415,0,0,0-10.73-.971,12.612,12.612,0,0,0-5.568,5,11.239,11.239,0,0,0-1.753,6.969,11.553,11.553,0,0,0,4.038,7.214c6.1,5.385,15.785,6.978,23.607,7.837a82.279,82.279,0,0,0,26.059-1.546c7.115-1.486,14.281-4.836,18.847-10.69,3.528-4.522,4.847-10.734,4.847-16.353Q622.871,675.725,616.352,669.053Z"/>
    </g>
    <circle id="Ellipse_1" data-name="Ellipse 1" cx="11.689" cy="11.689" r="11.689" transform="translate(614.135 604.712) rotate(-20.503)"/>
  </g>
</svg>
