<!-- Generated by IcoMoon.io -->
<svg version="1.1" xmlns="http://www.w3.org/2000/svg" width="1739" height="1024" viewBox="0 0 1739 1024">
<title></title>
<g id="icomoon-ignore">
</g>
<path fill="#333" d="M1196.572 728.738c-3.631-8.735-302.423-600.776-307.302-608.938-30.187-70.905-99.274-119.712-179.761-119.712-107.597 0-194.821 87.224-194.821 194.821 0 37.071 10.354 71.723 28.327 101.223l-0.487-0.86c3.631 8.724 289.595 575.402 294.497 583.553 22.782 85.305 99.363 147.109 190.38 147.109 108.659 0 196.744-88.085 196.744-196.744 0-37.068-10.251-71.741-28.073-101.34l0.495 0.887z"></path>
<path fill="#000" d="M851.551 328.101c32.639-34.744 52.691-81.644 52.691-133.227 0-107.572-87.204-194.776-194.776-194.776-65.876 0-124.114 32.704-159.364 82.761l-0.412 0.617c-6.419 6.847-491.544 604.711-496.918 612.435-32.665 34.75-52.735 81.668-52.735 133.274 0 107.572 87.204 194.776 194.776 194.776 65.896 0 124.149-32.723 159.395-82.806l0.413-0.618c6.419-6.88 491.533-604.722 496.929-612.435z"></path>
<path fill="#000" d="M1686.295 328.101c32.639-34.744 52.691-81.644 52.691-133.227 0-107.572-87.204-194.776-194.776-194.776-65.876 0-124.114 32.704-159.364 82.761l-0.412 0.617c-6.419 6.847-491.544 604.711-496.918 612.435-32.639 34.744-52.691 81.644-52.691 133.227 0 107.572 87.204 194.776 194.776 194.776 65.876 0 124.114-32.704 159.364-82.761l0.412-0.617c6.453-6.88 491.567-604.722 496.918-612.435z"></path>
</svg>
