<svg xmlns="http://www.w3.org/2000/svg" width="102.659" height="120.854" viewBox="0 0 102.659 120.854">
  <g id="Group_5" data-name="Group 5" transform="translate(-762.961 -337.874)">
    <path id="Rectangle_10" data-name="Rectangle 10" d="M43.354,0h0a0,0,0,0,1,0,0V34.345A43.354,43.354,0,0,1,0,77.7H0a0,0,0,0,1,0,0V43.354A43.354,43.354,0,0,1,43.354,0Z" transform="translate(822.266 381.03)"/>
    <path id="Rectangle_11" data-name="Rectangle 11" d="M48.286,0H98a0,0,0,0,1,0,0V0A48.286,48.286,0,0,1,49.718,48.286H0a0,0,0,0,1,0,0v0A48.286,48.286,0,0,1,48.286,0Z" transform="translate(811.246 337.874) rotate(90)"/>
    <circle id="Ellipse_2" data-name="Ellipse 2" cx="16.394" cy="16.394" r="16.394" transform="translate(818.918 370.694) rotate(-76.622)"/>
  </g>
</svg>
